<svg width="726" height="160" viewBox="0 0 726 160" fill="none" xmlns="http://www.w3.org/2000/svg">
<path d="M210.57 103.8H232.97V117H193.47V46.8H210.57V103.8ZM298.226 61.2V117H281.126V109.4C279.392 111.867 277.026 113.867 274.026 115.4C271.092 116.867 267.826 117.6 264.226 117.6C259.959 117.6 256.192 116.667 252.926 114.8C249.659 112.867 247.126 110.1 245.326 106.5C243.526 102.9 242.626 98.6667 242.626 93.8V61.2H259.626V91.5C259.626 95.2333 260.592 98.1333 262.526 100.2C264.459 102.267 267.059 103.3 270.326 103.3C273.659 103.3 276.292 102.267 278.226 100.2C280.159 98.1333 281.126 95.2333 281.126 91.5V61.2H298.226ZM383.709 60.6C390.642 60.6 396.142 62.7 400.209 66.9C404.342 71.1 406.409 76.9333 406.409 84.4V117H389.409V86.7C389.409 83.1 388.442 80.3333 386.509 78.4C384.642 76.4 382.042 75.4 378.709 75.4C375.375 75.4 372.742 76.4 370.809 78.4C368.942 80.3333 368.009 83.1 368.009 86.7V117H351.009V86.7C351.009 83.1 350.042 80.3333 348.109 78.4C346.242 76.4 343.642 75.4 340.309 75.4C336.975 75.4 334.342 76.4 332.409 78.4C330.542 80.3333 329.609 83.1 329.609 86.7V117H312.509V61.2H329.609V68.2C331.342 65.8667 333.609 64.0333 336.409 62.7C339.209 61.3 342.375 60.6 345.909 60.6C350.109 60.6 353.842 61.5 357.109 63.3C360.442 65.1 363.042 67.6667 364.909 71C366.842 67.9333 369.475 65.4333 372.809 63.5C376.142 61.5667 379.775 60.6 383.709 60.6ZM428.968 55.4C425.968 55.4 423.501 54.5333 421.568 52.8C419.701 51 418.768 48.8 418.768 46.2C418.768 43.5333 419.701 41.3333 421.568 39.6C423.501 37.8 425.968 36.9 428.968 36.9C431.901 36.9 434.301 37.8 436.168 39.6C438.101 41.3333 439.068 43.5333 439.068 46.2C439.068 48.8 438.101 51 436.168 52.8C434.301 54.5333 431.901 55.4 428.968 55.4ZM437.468 61.2V117H420.368V61.2H437.468ZM474.36 47.1C482.093 47.1 488.727 48.5 494.26 51.3C499.793 54.1 504.027 58.1333 506.96 63.4C509.893 68.6667 511.36 74.9333 511.36 82.2C511.36 89.4 509.893 95.6333 506.96 100.9C504.027 106.1 499.793 110.1 494.26 112.9C488.727 115.633 482.093 117 474.36 117H453.66V47.1H474.36ZM474.36 111.2C484.093 111.2 491.493 108.667 496.56 103.6C501.693 98.4667 504.26 91.3333 504.26 82.2C504.26 73 501.693 65.8333 496.56 60.7C491.493 55.5 484.093 52.9 474.36 52.9H460.66V111.2H474.36ZM550.166 117.8C545.032 117.8 540.399 116.667 536.266 114.4C532.199 112.067 528.966 108.8 526.566 104.6C524.232 100.333 523.066 95.3667 523.066 89.7C523.066 84.0333 524.266 79.1 526.666 74.9C529.066 70.6333 532.332 67.3667 536.466 65.1C540.599 62.7667 545.232 61.6 550.366 61.6C555.499 61.6 560.132 62.7667 564.266 65.1C568.466 67.3667 571.732 70.6333 574.066 74.9C576.466 79.1 577.666 84.0333 577.666 89.7C577.666 95.3 576.466 100.233 574.066 104.5C571.666 108.767 568.366 112.067 564.166 114.4C559.966 116.667 555.299 117.8 550.166 117.8ZM550.166 111.7C553.766 111.7 557.099 110.9 560.166 109.3C563.232 107.633 565.699 105.167 567.566 101.9C569.499 98.5667 570.466 94.5 570.466 89.7C570.466 84.9 569.532 80.8667 567.666 77.6C565.799 74.2667 563.332 71.8 560.266 70.2C557.199 68.5333 553.866 67.7 550.266 67.7C546.666 67.7 543.332 68.5333 540.266 70.2C537.199 71.8 534.732 74.2667 532.866 77.6C531.066 80.8667 530.166 84.9 530.166 89.7C530.166 94.5 531.066 98.5667 532.866 101.9C534.732 105.167 537.166 107.633 540.166 109.3C543.232 110.9 546.566 111.7 550.166 111.7ZM589.226 89.7C589.226 84.0333 590.359 79.1 592.626 74.9C594.892 70.6333 598.026 67.3667 602.026 65.1C606.026 62.7667 610.592 61.6 615.726 61.6C622.459 61.6 627.992 63.2667 632.326 66.6C636.726 69.9333 639.559 74.4667 640.826 80.2H633.326C632.392 76.2667 630.359 73.2 627.226 71C624.159 68.7333 620.326 67.6 615.726 67.6C612.059 67.6 608.759 68.4333 605.826 70.1C602.892 71.7667 600.559 74.2667 598.826 77.6C597.159 80.8667 596.326 84.9 596.326 89.7C596.326 94.5 597.159 98.5667 598.826 101.9C600.559 105.233 602.892 107.733 605.826 109.4C608.759 111.067 612.059 111.9 615.726 111.9C620.326 111.9 624.159 110.8 627.226 108.6C630.359 106.333 632.392 103.2 633.326 99.2H640.826C639.559 104.8 636.726 109.3 632.326 112.7C627.926 116.1 622.392 117.8 615.726 117.8C610.592 117.8 606.026 116.667 602.026 114.4C598.026 112.067 594.892 108.8 592.626 104.6C590.359 100.333 589.226 95.3667 589.226 89.7ZM674.554 117.8C668.287 117.8 663.154 116.367 659.154 113.5C655.221 110.567 653.021 106.6 652.554 101.6H659.754C660.087 104.667 661.521 107.167 664.054 109.1C666.654 110.967 670.121 111.9 674.454 111.9C678.254 111.9 681.221 111 683.354 109.2C685.554 107.4 686.654 105.167 686.654 102.5C686.654 100.633 686.054 99.1 684.854 97.9C683.654 96.7 682.121 95.7667 680.254 95.1C678.454 94.3667 675.987 93.6 672.854 92.8C668.787 91.7333 665.487 90.6667 662.954 89.6C660.421 88.5333 658.254 86.9667 656.454 84.9C654.721 82.7667 653.854 79.9333 653.854 76.4C653.854 73.7333 654.654 71.2667 656.254 69C657.854 66.7333 660.121 64.9333 663.054 63.6C665.987 62.2667 669.321 61.6 673.054 61.6C678.921 61.6 683.654 63.1 687.254 66.1C690.854 69.0333 692.787 73.1 693.054 78.3H686.054C685.854 75.1 684.587 72.5333 682.254 70.6C679.987 68.6 676.854 67.6 672.854 67.6C669.321 67.6 666.454 68.4333 664.254 70.1C662.054 71.7667 660.954 73.8333 660.954 76.3C660.954 78.4333 661.587 80.2 662.854 81.6C664.187 82.9333 665.821 84 667.754 84.8C669.687 85.5333 672.287 86.3667 675.554 87.3C679.487 88.3667 682.621 89.4 684.954 90.4C687.287 91.4 689.287 92.8667 690.954 94.8C692.621 96.7333 693.487 99.3 693.554 102.5C693.554 105.433 692.754 108.067 691.154 110.4C689.554 112.667 687.321 114.467 684.454 115.8C681.587 117.133 678.287 117.8 674.554 117.8Z" fill="#2984FF"/>
<rect width="160" height="160" rx="20" fill="#EAF3FF"/>
<rect width="72.5759" height="72.5759" rx="13.3333" transform="matrix(0.965916 -0.258855 -0.258855 0.965916 63.231 62.2224)" fill="#94C2FF"/>
<rect width="72.5759" height="72.5759" rx="13.3333" transform="matrix(0.965916 -0.258855 -0.258855 0.965916 45.4536 44.4446)" fill="#2984FF"/>
</svg>
