<svg width="98" height="98" viewBox="0 0 98 98" fill="none" xmlns="http://www.w3.org/2000/svg">
<path d="M88.2115 2.87109H26.171C25.5374 2.87109 25.0225 3.38598 25.0225 4.01953V42.3525C20 42.362 15.0311 43.3191 10.2249 45.2082C9.98373 45.3039 9.67556 45.459 9.46119 45.5949C9.15685 45.7882 8.95971 46.1136 8.93099 46.4734C8.28787 54.4264 8.37592 65.2848 12.4586 71.8539C15.167 76.2122 19.1731 79.403 25.0244 81.8511V93.9805C25.0244 94.614 25.5393 95.1289 26.1729 95.1289H88.2153C88.8488 95.1289 89.3637 94.614 89.3637 93.9805V4.01953C89.3599 3.38598 88.8469 2.87109 88.2115 2.87109ZM14.4071 70.6385C10.5905 64.4962 10.7015 53.6473 11.1685 47.3022C20.7752 43.5564 30.581 43.7459 41.1408 47.8822C41.1428 47.8841 41.1466 47.8841 41.1485 47.886C41.9275 58.4172 40.8844 66.0696 38.0439 70.6385C35.5518 74.6484 31.7887 77.5865 26.2245 79.8604C20.6623 77.5884 16.8992 74.6504 14.4071 70.6385ZM87.063 92.832H27.3194V81.8951C33.2319 79.4412 37.2725 76.239 39.9981 71.852C43.2119 66.6783 44.3201 58.5378 43.3841 46.9673C43.3478 46.5098 43.0415 46.1193 42.6089 45.972L42.5438 45.9509C42.3888 45.8992 42.2548 45.8533 41.983 45.7461C37.0084 43.7976 32.0797 42.6798 27.3213 42.4156V5.16797H87.0669V92.832H87.063ZM40.0001 20.5494H74.3173C74.9508 20.5494 75.4657 20.0345 75.4657 19.4009V9.96461C75.4657 9.33106 74.9508 8.81617 74.3173 8.81617H40.0001C39.3665 8.81617 38.8516 9.33106 38.8516 9.96461V19.4009C38.8516 20.0345 39.3665 20.5494 40.0001 20.5494ZM41.1485 11.113H73.1688V18.2525H41.1485V11.113ZM35.0905 68.1291C37.1175 64.7183 37.818 59.3914 37.2342 51.8424C37.1998 51.3907 36.9012 51.0002 36.4724 50.849L36.4322 50.8356C36.3442 50.805 36.2638 50.7762 36.1049 50.7112C29.1933 47.8803 22.4787 47.7635 16.1508 50.3647C15.9747 50.4375 15.7585 50.5523 15.6015 50.6557C15.3067 50.8509 15.1172 51.1725 15.0904 51.5247C14.6885 56.7118 14.7497 63.8034 17.3203 68.1311C19.1138 71.1515 21.7973 73.322 25.7652 74.9662C25.9068 75.0236 26.0561 75.0542 26.2054 75.0542C26.3547 75.0542 26.504 75.0255 26.6456 74.9662C30.6116 73.3201 33.2951 71.1495 35.0905 68.1291ZM19.2956 66.9558C17.039 63.1583 17.0638 56.4419 17.3337 52.363C22.9936 50.1255 28.7779 50.248 34.9948 52.7382C35.4369 59.3283 34.8053 64.1096 33.1152 66.9558C31.6528 69.4173 29.4497 71.2376 26.2054 72.6559C22.9611 71.2376 20.758 69.4173 19.2956 66.9558ZM27.3194 62.2338V66.0581C27.3194 66.6917 26.8045 67.2066 26.171 67.2066C25.5374 67.2066 25.0225 66.6917 25.0225 66.0581V62.2338H21.1982C20.5647 62.2338 20.0498 61.7189 20.0498 61.0854C20.0498 60.4518 20.5647 59.937 21.1982 59.937H25.0225V56.1127C25.0225 55.4791 25.5374 54.9642 26.171 54.9642C26.8045 54.9642 27.3194 55.4791 27.3194 56.1127V59.937H31.1437C31.7772 59.937 32.2921 60.4518 32.2921 61.0854C32.2921 61.7189 31.7772 62.2338 31.1437 62.2338H27.3194ZM62.0424 28.4238V44.3584C62.0424 45.6561 63.097 46.7108 64.3948 46.7108H80.3294C81.6271 46.7108 82.6817 45.6561 82.6817 44.3584V28.4238C82.6817 27.1261 81.6271 26.0714 80.3294 26.0714H64.3948C63.099 26.0714 62.0424 27.1261 62.0424 28.4238ZM80.3849 28.4238V44.3584C80.3849 44.3871 80.3581 44.4139 80.3294 44.4139H64.3948C64.3661 44.4139 64.3393 44.3871 64.3393 44.3584V28.4238C64.3393 28.3951 64.3661 28.3683 64.3948 28.3683H80.3294C80.3581 28.3683 80.3849 28.3951 80.3849 28.4238ZM66.8582 37.2055C66.4103 36.7577 66.4103 36.0303 66.8582 35.5805C67.3061 35.1326 68.0334 35.1326 68.4813 35.5805L70.7954 37.8946L76.2428 32.4472C76.6907 31.9993 77.4181 31.9993 77.866 32.4472C78.3138 32.8951 78.3138 33.6224 77.866 34.0722L71.607 40.3312C71.3926 40.5456 71.0997 40.6681 70.7954 40.6681C70.4911 40.6681 70.1982 40.5475 69.9838 40.3312L66.8582 37.2055ZM80.3294 52.8396H64.3948C63.097 52.8396 62.0424 53.8943 62.0424 55.192V71.1266C62.0424 72.4243 63.097 73.479 64.3948 73.479H80.3294C81.6271 73.479 82.6817 72.4243 82.6817 71.1266V55.192C82.6817 53.8962 81.6271 52.8396 80.3294 52.8396ZM80.3849 71.1266C80.3849 71.1553 80.3581 71.1821 80.3294 71.1821H64.3948C64.3661 71.1821 64.3393 71.1553 64.3393 71.1266V55.192C64.3393 55.1633 64.3661 55.1365 64.3948 55.1365H80.3294C80.3581 55.1365 80.3849 55.1633 80.3849 55.192V71.1266ZM77.866 59.2173C78.3138 59.6652 78.3138 60.3925 77.866 60.8404L71.607 67.0994C71.383 67.3233 71.0883 67.4362 70.7954 67.4362C70.5026 67.4362 70.2078 67.3233 69.9838 67.0994L66.8582 63.9737C66.4103 63.5258 66.4103 62.7985 66.8582 62.3487C67.3061 61.9008 68.0334 61.9008 68.4832 62.3487L70.7973 64.6628L76.2447 59.2173C76.6907 58.7694 77.4181 58.7694 77.866 59.2173ZM32.784 30.1656C32.784 29.5321 33.2989 29.0172 33.9325 29.0172H56.2275C56.861 29.0172 57.3759 29.5321 57.3759 30.1656C57.3759 30.7992 56.861 31.3141 56.2275 31.3141H33.9325C33.2989 31.3141 32.784 30.8011 32.784 30.1656ZM32.784 37.9214C32.784 37.2878 33.2989 36.773 33.9325 36.773H56.2275C56.861 36.773 57.3759 37.2878 57.3759 37.9214C57.3759 38.555 56.861 39.0698 56.2275 39.0698H33.9325C33.2989 39.0698 32.784 38.555 32.784 37.9214ZM45.5623 56.3404C45.5623 55.7069 46.0772 55.192 46.7108 55.192H56.2275C56.861 55.192 57.3759 55.7069 57.3759 56.3404C57.3759 56.974 56.861 57.4889 56.2275 57.4889H46.7108C46.0772 57.4889 45.5623 56.974 45.5623 56.3404ZM45.5623 64.2111C45.5623 63.5775 46.0772 63.0626 46.7108 63.0626H56.2275C56.861 63.0626 57.3759 63.5775 57.3759 64.2111C57.3759 64.8446 56.861 65.3595 56.2275 65.3595H46.7108C46.0772 65.3595 45.5623 64.8465 45.5623 64.2111ZM51.1303 85.8093C51.1303 86.4429 50.6154 86.9578 49.9819 86.9578H37.4467C36.8131 86.9578 36.2983 86.4429 36.2983 85.8093C36.2983 85.1758 36.8131 84.6609 37.4467 84.6609H49.9819C50.6174 84.6609 51.1303 85.1758 51.1303 85.8093ZM69.4958 79.5676C69.4958 80.2011 68.9809 80.716 68.3473 80.716H37.7568C37.1232 80.716 36.6083 80.2011 36.6083 79.5676C36.6083 78.934 37.1232 78.4191 37.7568 78.4191H68.3473C68.9809 78.4191 69.4958 78.934 69.4958 79.5676Z" fill="#8EA3B7" fill-opacity="0.2"/>
</svg>
