<svg width="98" height="98" viewBox="0 0 98 98" fill="none" xmlns="http://www.w3.org/2000/svg">
<g clip-path="url(#clip0_2_2351)">
<path d="M89.8333 35.9332C85.3252 35.9386 81.6721 39.5918 81.6667 44.0999C81.6667 44.1554 81.6814 44.2061 81.683 44.2632L74.823 49.6532C69.8605 46.5021 63.4956 46.6197 58.653 49.9521L45.111 40.1097C47.0696 33.5524 44.2251 26.513 38.2608 23.1573L39.6198 15.4251C42.7433 13.8293 44.4961 10.4146 43.9722 6.94642C43.4483 3.47822 40.765 0.733715 37.3095 0.131691C33.854 -0.470334 30.4007 1.20504 28.7348 4.29173C27.0689 7.37842 27.5637 11.1846 29.9635 13.7428L28.6095 21.4521C24.3598 22.154 20.6336 24.6885 18.4196 28.3831C16.2055 32.0777 15.7275 36.5588 17.1124 40.6372L10.241 46.0272C9.56527 45.8395 8.86795 45.7406 8.16666 45.7332C4.86355 45.7332 1.88569 47.723 0.621645 50.7747C-0.6424 53.8263 0.0563056 57.339 2.39196 59.6746C4.72761 62.0103 8.24024 62.709 11.2919 61.4449C14.3436 60.1809 16.3333 57.203 16.3333 53.8999C16.3333 53.8444 16.3186 53.7937 16.317 53.7366L23.177 48.3466C28.1395 51.4977 34.5044 51.3801 39.347 48.0477L52.889 57.8901C50.9304 64.4474 53.7749 71.4868 59.7392 74.8425L58.3802 82.5747C55.2567 84.1706 53.5039 87.5852 54.0278 91.0534C54.5517 94.5216 57.235 97.2661 60.6905 97.8681C64.146 98.4701 67.5993 96.7948 69.2652 93.7081C70.9311 90.6214 70.4363 86.8152 68.0365 84.257L69.3905 76.5477C73.6402 75.8458 77.3664 73.3113 79.5804 69.6167C81.7945 65.9221 82.2725 61.441 80.8876 57.3626L87.759 51.9726C88.4347 52.1603 89.132 52.2592 89.8333 52.2666C94.3437 52.2666 98 48.6102 98 44.0999C98 39.5896 94.3437 35.9332 89.8333 35.9332ZM31.966 21.2806L33.4588 12.7758C33.6194 11.8873 34.4699 11.2972 35.3584 11.4577C36.2469 11.6183 36.8371 12.4688 36.6765 13.3573L35.1853 21.8392C34.1364 21.5335 33.0565 21.3461 31.966 21.2806ZM35.9333 3.26657C37.8494 3.26108 39.5917 4.37618 40.3893 6.11835C41.1868 7.86051 40.8923 9.90808 39.6361 11.3548C39.0415 9.73048 37.6279 8.54488 35.9249 8.24208C34.2218 7.93928 32.4862 8.56499 31.3682 9.88484C30.7766 8.38402 30.9712 6.68718 31.8872 5.35926C32.8032 4.03134 34.3203 3.2467 35.9333 3.26657ZM8.16666 58.7999C5.46047 58.7999 3.26666 56.6061 3.26666 53.8999C3.26666 51.1937 5.46047 48.9999 8.16666 48.9999C10.8729 48.9999 13.0667 51.1937 13.0667 53.8999C13.0667 56.6061 10.8729 58.7999 8.16666 58.7999ZM13.4146 47.6932L21.8556 41.0668C22.5611 40.5116 23.5823 40.6298 24.1423 41.3314C24.7003 42.0409 24.583 43.0674 23.8793 43.6328L15.4432 50.2706C14.9486 49.2829 14.2585 48.406 13.4146 47.6932ZM25.9504 46.153C27.4806 44.9106 28.1174 42.8723 27.5667 40.9798C27.0159 39.0872 25.3848 37.7089 23.4269 37.4816C22.1647 37.3312 20.894 37.6832 19.8891 38.4616C18.8148 33.724 20.8516 28.8248 24.968 26.2451C29.0844 23.6655 34.3815 23.9687 38.1766 27.0012C41.9717 30.0338 43.4362 35.1334 41.8283 39.7175C40.2204 44.3016 35.8912 47.3691 31.0333 47.3666C29.2678 47.3639 27.5272 46.9473 25.9504 46.153ZM41.8574 45.8427C42.6029 45.0322 43.2554 44.1408 43.8027 43.1852L56.1426 52.1539C55.3971 52.9644 54.7446 53.8557 54.1973 54.8113L41.8574 45.8427ZM66.0308 76.7127L64.5379 85.2174C64.36 86.0947 63.5224 86.6759 62.6383 86.5355C62.2114 86.4588 61.8326 86.2155 61.5853 85.8591C61.3381 85.5028 61.2427 85.0627 61.3202 84.636L62.8115 76.1541C63.8612 76.4623 64.9421 76.6518 66.034 76.7192L66.0308 76.7127ZM62.0667 94.7332C60.1506 94.7387 58.4083 93.6236 57.6107 91.8815C56.8132 90.1393 57.1077 88.0917 58.3639 86.645C58.9649 88.2722 60.3834 89.4588 62.0912 89.763C62.3692 89.809 62.6505 89.8325 62.9323 89.8332C64.3561 89.8348 65.7098 89.2158 66.64 88.1378C67.2223 89.6375 67.0219 91.3283 66.1052 92.6503C65.1885 93.9723 63.6752 94.7528 62.0667 94.7332ZM66.9667 73.4999C62.2376 73.5164 57.9864 70.6197 56.2716 66.2124C54.5568 61.8051 55.7324 56.797 59.229 53.6129C62.7257 50.4289 67.8217 49.7263 72.0496 51.8452C69.9799 53.5358 69.639 56.5697 71.2819 58.6774C72.2058 59.8648 73.6288 60.5558 75.1333 60.5476C76.2096 60.543 77.255 60.1875 78.1109 59.5349C78.8892 62.9259 78.0781 66.4867 75.908 69.2061C73.7379 71.9255 70.4458 73.5064 66.9667 73.4999ZM76.1525 56.9265C75.4384 57.4592 74.4332 57.3455 73.8561 56.6668C73.2978 55.9582 73.4144 54.9323 74.1174 54.367L82.5568 47.7292C83.0513 48.7169 83.7415 49.5938 84.5854 50.3066L76.1525 56.9265ZM89.8333 48.9999C87.1271 48.9999 84.9333 46.8061 84.9333 44.0999C84.9333 41.3937 87.1271 39.1999 89.8333 39.1999C92.5395 39.1999 94.7333 41.3937 94.7333 44.0999C94.7333 46.8061 92.5395 48.9999 89.8333 48.9999Z" fill="#8EA3B7" fill-opacity="0.2"/>
<path d="M91.4667 -9.50333e-05C88.3671 0.00365203 85.6955 2.1816 85.0673 5.21677L79.79 9.1678C78.3261 8.50836 76.7389 8.1671 75.1333 8.16657C73.1622 8.16702 71.2261 8.68822 69.5212 9.67741L63.566 5.21677C62.8735 1.85038 59.6912 -0.403867 56.2857 0.0595745C52.8803 0.523016 50.4161 3.54567 50.6483 6.9747C50.8806 10.4037 53.7298 13.0665 57.1667 13.0666C57.33 13.0666 57.4933 13.029 57.6566 13.0176L63.8845 17.6922C63.7679 18.3215 63.7062 18.9599 63.7 19.5999C63.6818 24.0559 66.2542 28.1165 70.2909 30.0038C74.3276 31.8911 79.093 31.2611 82.5006 28.3897C85.9082 25.5183 87.3371 20.9287 86.1616 16.6305L90.9767 13.0176C91.14 13.029 91.3033 13.0666 91.4667 13.0666C95.0749 13.0666 98 10.1415 98 6.53324C98 2.92498 95.0749 -9.50333e-05 91.4667 -9.50333e-05ZM53.9 6.53324C53.9 4.72911 55.3625 3.26657 57.1667 3.26657C58.9708 3.26657 60.4333 4.72911 60.4333 6.53324C60.4333 8.33737 58.9708 9.79991 57.1667 9.79991C55.3625 9.79991 53.9 8.33737 53.9 6.53324ZM63.21 9.02407L68.6 13.0666C69.3216 13.6078 69.4679 14.6316 68.9267 15.3532C68.3854 16.0749 67.3616 16.2211 66.64 15.6799L61.2222 11.6145C62.093 10.9328 62.7768 10.0416 63.21 9.02407ZM75.1333 27.7666C70.6252 27.7612 66.972 24.108 66.9667 19.5999C66.9667 19.4709 66.9862 19.35 66.9911 19.2242C67.1962 19.2537 67.403 19.27 67.6102 19.2732C69.0326 19.2762 70.3862 18.6609 71.3192 17.5871C72.2522 16.5134 72.6725 15.0872 72.471 13.6791C72.3858 13.1283 72.208 12.5959 71.9451 12.1045C72.9507 11.6651 74.0358 11.4366 75.1333 11.4332C79.6436 11.4332 83.3 15.0896 83.3 19.5999C83.3 24.1102 79.6436 27.7666 75.1333 27.7666ZM84.819 13.5566C84.2386 12.6294 83.5285 11.7901 82.7104 11.0641L85.4315 9.02571C85.8619 10.0412 86.5423 10.9313 87.4095 11.6129L84.819 13.5566ZM91.4667 9.79991C89.6625 9.79991 88.2 8.33737 88.2 6.53324C88.2 4.72911 89.6625 3.26657 91.4667 3.26657C93.2708 3.26657 94.7333 4.72911 94.7333 6.53324C94.7333 7.39961 94.3892 8.2305 93.7765 8.84312C93.1639 9.45574 92.333 9.79991 91.4667 9.79991Z" fill="#8EA3B7" fill-opacity="0.2"/>
<path d="M6.53335 84.9334C3.09647 84.9334 0.247254 87.5962 0.0150222 91.0252C-0.21721 94.4543 2.24695 97.4769 5.65245 97.9404C9.05794 98.4038 12.2402 96.1495 12.9327 92.7832L18.2101 88.8321C19.6739 89.4916 21.2611 89.8328 22.8667 89.8334C24.8378 89.8329 26.7739 89.3117 28.4788 88.3225L34.434 92.7832C35.1265 96.1495 38.3088 98.4038 41.7143 97.9404C45.1197 97.4769 47.5839 94.4543 47.3517 91.0252C47.1194 87.5962 44.2702 84.9334 40.8334 84.9334C40.67 84.9334 40.5067 84.9709 40.3434 84.9824L34.1203 80.3078C34.2353 79.6782 34.2954 79.0399 34.3 78.4C34.3182 73.944 31.7458 69.8834 27.7091 67.9961C23.6724 66.1089 18.907 66.7388 15.4994 69.6102C12.0918 72.4816 10.6629 77.0712 11.8384 81.3694L7.02335 84.9824C6.86002 84.9709 6.69668 84.9334 6.53335 84.9334ZM6.53335 94.7334C4.72922 94.7334 3.26668 93.2708 3.26668 91.4667C3.26668 89.6626 4.72922 88.2 6.53335 88.2C8.33748 88.2 9.80002 89.6626 9.80002 91.4667C9.80002 93.2708 8.33748 94.7334 6.53335 94.7334ZM44.1 91.4667C44.1 93.2708 42.6375 94.7334 40.8334 94.7334C39.0292 94.7334 37.5667 93.2708 37.5667 91.4667C37.5667 89.6626 39.0292 88.2 40.8334 88.2C42.6375 88.2 44.1 89.6626 44.1 91.4667ZM34.7982 88.9759L29.4 84.9334C28.6784 84.3921 28.5321 83.3683 29.0733 82.6467C29.6146 81.925 30.6384 81.7788 31.36 82.32L36.7794 86.3854C35.9111 87.0679 35.2295 87.9591 34.7982 88.9759ZM22.8667 70.2334C27.3748 70.2388 31.028 73.8919 31.0333 78.4C31.0333 78.534 31.0138 78.6581 31.0072 78.7888C29.1948 78.5321 27.3921 79.3172 26.3455 80.8191C25.299 82.3209 25.1866 84.2839 26.0549 85.8954C25.0493 86.3349 23.9642 86.5633 22.8667 86.5667C18.3564 86.5667 14.7 82.9103 14.7 78.4C14.7 73.8897 18.3564 70.2334 22.8667 70.2334ZM13.181 84.4434C13.7614 85.3705 14.4715 86.2098 15.2896 86.9358L12.5767 88.9775C12.1445 87.9599 11.4611 87.0685 10.5905 86.387L13.181 84.4434Z" fill="#8EA3B7" fill-opacity="0.2"/>
</g>
<defs>
<clipPath id="clip0_2_2351">
<rect width="98" height="98" fill="white"/>
</clipPath>
</defs>
</svg>
