<svg width="98" height="98" viewBox="0 0 98 98" fill="none" xmlns="http://www.w3.org/2000/svg">
<g clip-path="url(#clip0_2_2338)">
<path d="M74.2971 48.2208C73.6749 47.2022 72.8468 46.3248 71.8657 45.6449C70.8846 44.9651 69.7723 44.4978 68.6 44.2731V16.3333C68.5974 14.1681 67.7362 12.0924 66.2052 10.5614C64.6742 9.03043 62.5985 8.16918 60.4333 8.16659H46.9126C46.6282 7.67162 46.2186 7.26016 45.7249 6.97347C45.2312 6.68679 44.6709 6.53498 44.1 6.53325H41.9097C41.2356 4.62015 39.9845 2.96334 38.329 1.79136C36.6735 0.619387 34.6951 -0.0100098 32.6667 -0.0100098C30.6383 -0.0100098 28.6599 0.619387 27.0043 1.79136C25.3488 2.96334 24.0977 4.62015 23.4236 6.53325H21.2333C20.6625 6.53498 20.1021 6.68679 19.6084 6.97347C19.1148 7.26016 18.7052 7.67162 18.4207 8.16659H8.16667C6.00153 8.16918 3.92581 9.03043 2.39483 10.5614C0.863841 12.0924 0.0025935 14.1681 0 16.3333L0 84.9333C0.0025935 87.0984 0.863841 89.1741 2.39483 90.7051C3.92581 92.2361 6.00153 93.0973 8.16667 93.0999H36.8464C36.9215 93.2535 36.9819 93.4119 37.0669 93.5622C37.8037 94.9119 38.8921 96.037 40.2166 96.8183C41.5411 97.5996 43.0523 98.0079 44.59 97.9999H89.3597C90.8959 98.0058 92.4051 97.5963 93.7277 96.8148C95.0502 96.0334 96.137 94.9089 96.873 93.5605C97.6504 92.192 98.0434 90.6387 98.0104 89.065C97.9773 87.4914 97.5194 85.956 96.6852 84.6213L74.2971 48.2208ZM65.3333 16.3333V44.2731C64.1595 44.4963 63.0462 44.9655 62.0667 45.65V17.9666C62.0667 17.1002 61.7225 16.2693 61.1099 15.6567C60.4973 15.0441 59.6664 14.6999 58.8 14.6999H47.3667V11.4333H60.4333C61.7329 11.4333 62.9792 11.9495 63.8982 12.8684C64.8171 13.7874 65.3333 15.0337 65.3333 16.3333ZM21.2333 9.79992H24.6633C25.0401 9.80037 25.4055 9.67053 25.6976 9.43238C25.9896 9.19424 26.1903 8.86245 26.2656 8.49325C26.5671 7.0181 27.3688 5.69234 28.5352 4.74022C29.7016 3.7881 31.161 3.26805 32.6667 3.26805C34.1723 3.26805 35.6318 3.7881 36.7981 4.74022C37.9645 5.69234 38.7662 7.0181 39.0677 8.49325C39.1431 8.86245 39.3438 9.19424 39.6358 9.43238C39.9278 9.67053 40.2932 9.80037 40.67 9.79992H44.1V16.3333H21.2333V9.79992ZM44.1 19.5999C44.6709 19.5982 45.2312 19.4464 45.7249 19.1597C46.2186 18.873 46.6282 18.4616 46.9126 17.9666H58.8V49.583L38.0567 83.2999H9.8V17.9666H18.4207C18.7052 18.4616 19.1148 18.873 19.6084 19.1597C20.1021 19.4464 20.6625 19.5982 21.2333 19.5999H44.1ZM8.16667 89.8333C6.86711 89.8333 5.62077 89.317 4.70184 88.3981C3.78292 87.4792 3.26667 86.2328 3.26667 84.9333V16.3333C3.26667 15.0337 3.78292 13.7874 4.70184 12.8684C5.62077 11.9495 6.86711 11.4333 8.16667 11.4333H17.9667V14.6999H9.8C8.93363 14.6999 8.10274 15.0441 7.49012 15.6567C6.8775 16.2693 6.53333 17.1002 6.53333 17.9666V83.2999C6.53333 84.1663 6.8775 84.9972 7.49012 85.6098C8.10274 86.2224 8.93363 86.5666 9.8 86.5666H36.3629C36.0219 87.6199 35.886 88.7288 35.9627 89.8333H8.16667ZM94.0163 91.968C93.5601 92.8065 92.8857 93.5061 92.0646 93.9929C91.2435 94.4796 90.3061 94.7354 89.3515 94.7333H44.59C43.6358 94.7357 42.6987 94.4801 41.8779 93.9936C41.057 93.5071 40.3829 92.8078 39.9268 91.9697C39.4358 91.1065 39.1873 90.1266 39.2077 89.1337C39.2281 88.1409 39.5167 87.172 40.0428 86.3298L62.4195 49.9342C62.8927 49.1511 63.56 48.5034 64.357 48.0539C65.1539 47.6043 66.0533 47.3681 66.9683 47.3681C67.8833 47.3681 68.7827 47.6043 69.5797 48.0539C70.3766 48.5034 71.0439 49.1511 71.5171 49.9342L93.8938 86.333C94.4204 87.174 94.7097 88.1417 94.7313 89.1337C94.7529 90.1256 94.5058 91.105 94.0163 91.968Z" fill="#8EA3B7" fill-opacity="0.2"/>
<path d="M66.9667 53.8999C65.6671 53.8999 64.4208 54.4162 63.5018 55.3351C62.5829 56.254 62.0667 57.5003 62.0667 58.7999V73.4999C62.0667 74.7995 62.5829 76.0458 63.5018 76.9647C64.4208 77.8837 65.6671 78.3999 66.9667 78.3999C68.2662 78.3999 69.5125 77.8837 70.4315 76.9647C71.3504 76.0458 71.8667 74.7995 71.8667 73.4999V58.7999C71.8667 57.5003 71.3504 56.254 70.4315 55.3351C69.5125 54.4162 68.2662 53.8999 66.9667 53.8999ZM68.6 73.4999C68.6 73.9331 68.4279 74.3485 68.1216 74.6548C67.8153 74.9612 67.3998 75.1332 66.9667 75.1332C66.5335 75.1332 66.118 74.9612 65.8117 74.6548C65.5054 74.3485 65.3333 73.9331 65.3333 73.4999V58.7999C65.3333 58.3667 65.5054 57.9513 65.8117 57.645C66.118 57.3387 66.5335 57.1666 66.9667 57.1666C67.3998 57.1666 67.8153 57.3387 68.1216 57.645C68.4279 57.9513 68.6 58.3667 68.6 58.7999V73.4999Z" fill="#8EA3B7" fill-opacity="0.2"/>
<path d="M66.9667 81.6667C65.9975 81.6667 65.0502 81.9541 64.2444 82.4925C63.4386 83.031 62.8105 83.7962 62.4396 84.6916C62.0688 85.587 61.9717 86.5722 62.1608 87.5227C62.3499 88.4732 62.8166 89.3463 63.5018 90.0316C64.1871 90.7168 65.0602 91.1835 66.0107 91.3726C66.9612 91.5617 67.9464 91.4646 68.8418 91.0938C69.7372 90.7229 70.5024 90.0948 71.0409 89.289C71.5793 88.4832 71.8667 87.5359 71.8667 86.5667C71.8667 85.2672 71.3504 84.0209 70.4315 83.1019C69.5125 82.183 68.2662 81.6667 66.9667 81.6667ZM66.9667 88.2001C66.6436 88.2001 66.3278 88.1043 66.0592 87.9248C65.7906 87.7453 65.5813 87.4902 65.4577 87.1918C65.334 86.8933 65.3017 86.5649 65.3647 86.2481C65.4277 85.9313 65.5833 85.6402 65.8117 85.4118C66.0401 85.1834 66.3312 85.0278 66.648 84.9648C66.9648 84.9018 67.2932 84.9341 67.5917 85.0577C67.8902 85.1814 68.1452 85.3907 68.3247 85.6593C68.5042 85.9279 68.6 86.2437 68.6 86.5667C68.6 86.9999 68.4279 87.4154 68.1216 87.7217C67.8153 88.028 67.3998 88.2001 66.9667 88.2001Z" fill="#8EA3B7" fill-opacity="0.2"/>
<path d="M32.6667 31.0333H53.9C54.3332 31.0333 54.7486 30.8612 55.0549 30.5549C55.3612 30.2486 55.5333 29.8331 55.5333 29.3999C55.5333 28.9667 55.3612 28.5513 55.0549 28.245C54.7486 27.9387 54.3332 27.7666 53.9 27.7666H32.6667C32.2335 27.7666 31.818 27.9387 31.5117 28.245C31.2054 28.5513 31.0333 28.9667 31.0333 29.3999C31.0333 29.8331 31.2054 30.2486 31.5117 30.5549C31.818 30.8612 32.2335 31.0333 32.6667 31.0333Z" fill="#8EA3B7" fill-opacity="0.2"/>
<path d="M32.6667 37.5667H42.4667C42.8998 37.5667 43.3153 37.3946 43.6216 37.0883C43.9279 36.782 44.1 36.3666 44.1 35.9334C44.1 35.5002 43.9279 35.0847 43.6216 34.7784C43.3153 34.4721 42.8998 34.3 42.4667 34.3H32.6667C32.2335 34.3 31.818 34.4721 31.5117 34.7784C31.2054 35.0847 31.0333 35.5002 31.0333 35.9334C31.0333 36.3666 31.2054 36.782 31.5117 37.0883C31.818 37.3946 32.2335 37.5667 32.6667 37.5667Z" fill="#8EA3B7" fill-opacity="0.2"/>
<path d="M32.6667 49.0001H53.9C54.3332 49.0001 54.7486 48.828 55.0549 48.5217C55.3612 48.2154 55.5333 47.7999 55.5333 47.3667C55.5333 46.9335 55.3612 46.5181 55.0549 46.2118C54.7486 45.9055 54.3332 45.7334 53.9 45.7334H32.6667C32.2335 45.7334 31.818 45.9055 31.5117 46.2118C31.2054 46.5181 31.0333 46.9335 31.0333 47.3667C31.0333 47.7999 31.2054 48.2154 31.5117 48.5217C31.818 48.828 32.2335 49.0001 32.6667 49.0001Z" fill="#8EA3B7" fill-opacity="0.2"/>
<path d="M32.6667 55.5333H42.4667C42.8998 55.5333 43.3153 55.3612 43.6216 55.0549C43.9279 54.7486 44.1 54.3331 44.1 53.8999C44.1 53.4667 43.9279 53.0513 43.6216 52.745C43.3153 52.4387 42.8998 52.2666 42.4667 52.2666H32.6667C32.2335 52.2666 31.818 52.4387 31.5117 52.745C31.2054 53.0513 31.0333 53.4667 31.0333 53.8999C31.0333 54.3331 31.2054 54.7486 31.5117 55.0549C31.818 55.3612 32.2335 55.5333 32.6667 55.5333Z" fill="#8EA3B7" fill-opacity="0.2"/>
<path d="M32.6667 66.9666H44.1C44.5332 66.9666 44.9486 66.7945 45.2549 66.4882C45.5612 66.1819 45.7333 65.7665 45.7333 65.3333C45.7333 64.9001 45.5612 64.4847 45.2549 64.1783C44.9486 63.872 44.5332 63.7 44.1 63.7H32.6667C32.2335 63.7 31.818 63.872 31.5117 64.1783C31.2054 64.4847 31.0333 64.9001 31.0333 65.3333C31.0333 65.7665 31.2054 66.1819 31.5117 66.4882C31.818 66.7945 32.2335 66.9666 32.6667 66.9666Z" fill="#8EA3B7" fill-opacity="0.2"/>
<path d="M32.6667 73.5001H39.2C39.6332 73.5001 40.0486 73.328 40.3549 73.0217C40.6612 72.7154 40.8333 72.2999 40.8333 71.8667C40.8333 71.4335 40.6612 71.0181 40.3549 70.7118C40.0486 70.4055 39.6332 70.2334 39.2 70.2334H32.6667C32.2335 70.2334 31.818 70.4055 31.5117 70.7118C31.2054 71.0181 31.0333 71.4335 31.0333 71.8667C31.0333 72.2999 31.2054 72.7154 31.5117 73.0217C31.818 73.328 32.2335 73.5001 32.6667 73.5001Z" fill="#8EA3B7" fill-opacity="0.2"/>
<path d="M15.1785 34.7785C14.8723 35.0848 14.7003 35.5002 14.7003 35.9333C14.7003 36.3664 14.8723 36.7818 15.1785 37.0881L18.4452 40.3547C18.7514 40.661 19.1668 40.8332 19.6 40.8333C19.6875 40.8335 19.7749 40.8264 19.8613 40.812C20.117 40.7708 20.3592 40.6692 20.568 40.5159C20.7767 40.3625 20.946 40.1617 21.0618 39.9301L27.5951 26.8634C27.691 26.6714 27.7481 26.4624 27.7633 26.2484C27.7784 26.0343 27.7512 25.8194 27.6832 25.6159C27.6153 25.4123 27.5079 25.2242 27.3672 25.0621C27.2266 24.9001 27.0554 24.7673 26.8634 24.6714C26.6714 24.5756 26.4625 24.5184 26.2484 24.5033C26.0344 24.4882 25.8194 24.5154 25.6159 24.5834C25.4123 24.6513 25.2242 24.7587 25.0621 24.8993C24.9001 25.04 24.7673 25.2112 24.6715 25.4032L19.1524 36.4429L17.4881 34.7785C17.1818 34.4723 16.7664 34.3003 16.3333 34.3003C15.9002 34.3003 15.4848 34.4723 15.1785 34.7785Z" fill="#8EA3B7" fill-opacity="0.2"/>
<path d="M26.8635 42.6382C26.6715 42.5423 26.4625 42.4851 26.2484 42.4699C26.0344 42.4547 25.8194 42.4819 25.6159 42.5499C25.4123 42.6178 25.2241 42.7252 25.0621 42.8659C24.9 43.0067 24.7673 43.1779 24.6715 43.37L19.1525 54.4097L17.4881 52.7453C17.1801 52.4478 16.7675 52.2831 16.3392 52.2869C15.911 52.2906 15.5013 52.4624 15.1985 52.7652C14.8957 53.068 14.7239 53.4777 14.7202 53.9059C14.7164 54.3342 14.8811 54.7468 15.1786 55.0548L18.4453 58.3215C18.7515 58.6278 19.1669 58.8 19.6 58.8001C19.6876 58.8003 19.775 58.7932 19.8614 58.7788C20.1171 58.7375 20.3593 58.636 20.568 58.4827C20.7767 58.3293 20.946 58.1285 21.0619 57.8968L27.5952 44.8302C27.6912 44.6382 27.7484 44.4292 27.7635 44.2152C27.7787 44.0011 27.7515 43.7861 27.6836 43.5826C27.6156 43.379 27.5082 43.1908 27.3675 43.0288C27.2268 42.8668 27.0555 42.734 26.8635 42.6382Z" fill="#8EA3B7" fill-opacity="0.2"/>
<path d="M26.8635 60.5967C26.6715 60.5008 26.4625 60.4436 26.2484 60.4284C26.0344 60.4132 25.8194 60.4404 25.6159 60.5084C25.4123 60.5763 25.2241 60.6837 25.0621 60.8244C24.9 60.9652 24.7673 61.1364 24.6715 61.3285L19.1525 72.3682L17.4881 70.7038C17.1801 70.4063 16.7675 70.2416 16.3392 70.2454C15.911 70.2491 15.5013 70.4209 15.1985 70.7237C14.8957 71.0265 14.7239 71.4362 14.7202 71.8644C14.7164 72.2927 14.8811 72.7053 15.1786 73.0133L18.4453 76.28C18.5962 76.4332 18.7759 76.555 18.9741 76.6385C19.1723 76.722 19.385 76.7656 19.6 76.7667C19.6876 76.767 19.775 76.7599 19.8614 76.7455C20.1171 76.7042 20.3593 76.6027 20.568 76.4493C20.7768 76.296 20.946 76.0952 21.0619 75.8635L27.5952 62.7968C27.6924 62.6045 27.7506 62.3948 27.7665 62.1798C27.7823 61.9649 27.7554 61.7489 27.6874 61.5444C27.6194 61.3399 27.5116 61.1509 27.3702 60.9882C27.2287 60.8256 27.0565 60.6925 26.8635 60.5967Z" fill="#8EA3B7" fill-opacity="0.2"/>
</g>
<defs>
<clipPath id="clip0_2_2338">
<rect width="98" height="98" fill="white"/>
</clipPath>
</defs>
</svg>
