<svg width="98" height="98" viewBox="0 0 98 98" fill="none" xmlns="http://www.w3.org/2000/svg">
<g clip-path="url(#clip0_2_2336)">
<path d="M91.7404 28.9819H82.0694C81.847 28.3941 81.4759 27.8688 80.9713 27.4451C80.1067 26.7187 79.019 26.4254 77.9069 26.6203L74.5663 27.2041C74.1239 24.2013 71.5302 21.8893 68.4064 21.8893C65.2827 21.8893 62.6889 24.2013 62.2466 27.2041L58.9064 26.6203C57.7949 26.4266 56.706 26.7187 55.842 27.4449C55.3374 27.8688 54.9663 28.3939 54.7437 28.9819H45.0727C42.0433 28.9819 39.5788 31.4464 39.5788 34.4758V91.7405C39.5788 94.7699 42.0433 97.2345 45.0727 97.2345H91.74C94.7692 97.2345 97.2337 94.7701 97.2339 91.7405V34.4758C97.2339 31.4464 94.7694 28.9819 91.74 28.9819H91.7404ZM57.1814 30.3217C57.1814 29.9789 57.3035 29.7169 57.5658 29.4964C57.8284 29.2759 58.1078 29.201 58.4451 29.2598L63.2896 30.1066C63.6793 30.1747 64.0793 30.0669 64.3823 29.8124C64.6851 29.5578 64.8601 29.1823 64.8601 28.7866V28.1156C64.8601 26.16 66.451 24.569 68.4066 24.569C70.3622 24.569 71.9532 26.16 71.9532 28.1156V28.7866C71.9532 29.1823 72.1281 29.5578 72.431 29.8124C72.7339 30.0669 73.1328 30.1743 73.5237 30.1066L78.3686 29.2598C78.706 29.2008 78.9853 29.2761 79.2477 29.4966C79.5099 29.7169 79.632 29.9791 79.632 30.3217V34.2406H57.1816V30.3217H57.1814ZM80.9717 36.9202C81.6227 36.9202 82.1645 36.4559 82.2859 35.8405H90.3755V90.3756H46.4376V35.8407H54.5274C54.6485 36.4561 55.1906 36.9204 55.8416 36.9204H80.9717V36.9202ZM94.5546 91.7403C94.5546 93.2921 93.2919 94.5546 91.7404 94.5546H45.0729C43.5211 94.5546 42.2586 93.2921 42.2586 91.7403V34.4758C42.2586 32.9241 43.5211 31.6616 45.0729 31.6616H54.5017V33.1608H45.0978C44.3578 33.1608 43.7579 33.7607 43.7579 34.5007V91.7155C43.7579 92.4554 44.3578 93.0553 45.0978 93.0553H91.7153C92.4553 93.0553 93.0552 92.4554 93.0552 91.7155V34.5009C93.0552 33.7609 92.4553 33.161 91.7153 33.161H82.3115V31.6617H91.7404C93.2921 31.6617 94.5546 32.9243 94.5546 34.476V91.7403ZM66.7232 43.1249C66.7232 42.3849 67.3231 41.785 68.0631 41.785H84.9503C85.6902 41.785 86.2901 42.3849 86.2901 43.1249C86.2901 43.8648 85.6902 44.4647 84.9503 44.4647H68.0631C67.3231 44.4647 66.7232 43.8648 66.7232 43.1249ZM66.7232 49.665C66.7232 48.9251 67.3231 48.3252 68.0631 48.3252H84.8387C85.5787 48.3252 86.1785 48.9251 86.1785 49.665C86.1785 50.405 85.5787 51.0049 84.8387 51.0049H68.0631C67.3231 51.0049 66.7232 50.405 66.7232 49.665ZM51.8632 40.1309H58.6049C59.3449 40.1309 59.9448 40.7308 59.9448 41.4707C59.9448 42.2107 59.3449 42.8106 58.6049 42.8106H53.203V49.9791H60.3716V47.0342L58.4571 48.9486C58.2043 49.2014 57.8626 49.341 57.5097 49.341C57.4515 49.341 57.3933 49.3372 57.3347 49.3295C56.9219 49.2751 56.5576 49.0319 56.3494 48.6711L54.5971 45.6359C54.2271 44.9951 54.4468 44.1757 55.0874 43.8057C55.7286 43.4353 56.5479 43.6551 56.9177 44.2961L57.797 45.8191L63.1321 40.484C63.6555 39.9609 64.5039 39.9609 65.027 40.484C65.5501 41.0073 65.5501 41.8557 65.027 42.3788L63.0515 44.3543V51.3188C63.0515 52.0588 62.4516 52.6586 61.7116 52.6586H51.8634C51.1234 52.6586 50.5235 52.0588 50.5235 51.3188V41.4705C50.5235 40.7306 51.1234 40.1307 51.8634 40.1307L51.8632 40.1309ZM66.7232 66.3978C66.7232 65.6578 67.3231 65.0579 68.0631 65.0579H84.8387C85.5787 65.0579 86.1785 65.6578 86.1785 66.3978C86.1785 67.1377 85.5787 67.7376 84.8387 67.7376H68.0631C67.3231 67.7376 66.7232 67.1377 66.7232 66.3978ZM66.7232 59.8576C66.7232 59.1176 67.3231 58.5178 68.0631 58.5178H84.9503C85.6902 58.5178 86.2901 59.1176 86.2901 59.8576C86.2901 60.5976 85.6902 61.1975 84.9503 61.1975H68.0631C67.3231 61.1975 66.7232 60.5976 66.7232 59.8576ZM65.0272 57.217C65.5503 57.7403 65.5503 58.5886 65.0272 59.1117L63.0517 61.0872V68.0517C63.0517 68.7917 62.4518 69.3916 61.7118 69.3916H51.8636C51.1236 69.3916 50.5237 68.7917 50.5237 68.0517V58.2033C50.5237 57.4633 51.1236 56.8634 51.8636 56.8634H58.6053C59.3453 56.8634 59.9451 57.4633 59.9451 58.2033C59.9451 58.9433 59.3453 59.5431 58.6053 59.5431H53.2034V66.7119H60.372V63.7669L58.4575 65.6813C58.2047 65.9342 57.8632 66.0737 57.5101 66.0737C57.4519 66.0737 57.3937 66.0699 57.3351 66.0622C56.9223 66.0079 56.558 65.7646 56.3498 65.4038L54.5974 62.3689C54.2274 61.728 54.447 60.9086 55.0878 60.5386C55.729 60.1683 56.5483 60.3882 56.918 61.029L57.7974 62.5518L63.1324 57.2168C63.6559 56.6935 64.5042 56.6937 65.0274 57.2168L65.0272 57.217ZM66.7232 76.5903C66.7232 75.8504 67.3231 75.2505 68.0631 75.2505H84.9503C85.6902 75.2505 86.2901 75.8504 86.2901 76.5903C86.2901 77.3303 85.6902 77.9302 84.9503 77.9302H68.0631C67.3231 77.9302 66.7232 77.3303 66.7232 76.5903ZM66.7232 83.1305C66.7232 82.3905 67.3231 81.7907 68.0631 81.7907H84.8387C85.5787 81.7907 86.1785 82.3905 86.1785 83.1305C86.1785 83.8705 85.5787 84.4703 84.8387 84.4703H68.0631C67.3231 84.4703 66.7232 83.8705 66.7232 83.1305ZM65.0272 73.9495C65.5503 74.4728 65.5503 75.3211 65.0272 75.8442L63.0517 77.8197V84.7844C63.0517 85.5244 62.4518 86.1243 61.7118 86.1243H51.8636C51.1236 86.1243 50.5237 85.5244 50.5237 84.7844V74.936C50.5237 74.196 51.1236 73.5962 51.8636 73.5962H58.6053C59.3453 73.5962 59.9451 74.196 59.9451 74.936C59.9451 75.676 59.3453 76.2759 58.6053 76.2759H53.2034V83.4446H60.372V80.4996L58.4575 82.4141C58.2047 82.6669 57.8632 82.8065 57.5101 82.8065C57.4519 82.8065 57.3937 82.8026 57.3351 82.795C56.9223 82.7406 56.558 82.4973 56.3498 82.1365L54.5974 79.1016C54.2274 78.4608 54.447 77.6414 55.0878 77.2714C55.729 76.9012 56.5483 77.1209 56.918 77.7617L57.7974 79.2846L63.1324 73.9495C63.6559 73.4262 64.5041 73.4264 65.0272 73.9495ZM22.5802 43.0047V39.6474H25.9372C26.6772 39.6474 27.2771 39.0475 27.2771 38.3076V33.843H34.5708C34.9471 33.843 35.306 33.6847 35.5598 33.4072C35.8136 33.1294 35.939 32.7577 35.9053 32.383C35.5117 28.0151 33.51 23.9693 30.2691 20.9912C28.3713 19.2475 26.1422 17.9634 23.7376 17.1912C25.9822 15.5317 27.4411 12.8676 27.4411 9.86804C27.4411 4.8486 23.3575 0.765137 18.338 0.765137C13.3186 0.765137 9.23531 4.84898 9.23531 9.86842C9.23531 12.8678 10.694 15.5321 12.9386 17.1914C10.534 17.9636 8.30469 19.2477 6.40709 20.9914C3.16581 23.9695 1.16428 28.0151 0.77094 32.3832C0.737061 32.7579 0.862624 33.1294 1.11643 33.4074C1.37023 33.6851 1.72912 33.8432 2.10542 33.8432H9.39896V38.3078C9.39896 39.0477 9.99883 39.6476 10.7388 39.6476H14.0959V43.0049C14.0959 43.7448 14.6957 44.3447 15.4357 44.3447H21.2401C21.9801 44.3447 22.58 43.7448 22.58 43.0049L22.5802 43.0047ZM18.3382 3.44521C21.88 3.44521 24.7616 6.32664 24.7616 9.86842C24.7616 13.4102 21.88 16.2916 18.3382 16.2916C14.7964 16.2916 11.915 13.4102 11.915 9.86842C11.915 6.32664 14.7964 3.44521 18.3382 3.44521ZM18.3382 19.024C25.6356 19.024 31.7148 24.1483 33.0342 31.1635H22.5802V27.8062C22.5802 27.0663 21.9803 26.4664 21.2403 26.4664H15.4359C14.6959 26.4664 14.0961 27.0663 14.0961 27.8062V31.1635H3.64203C4.96159 24.1483 11.0408 19.024 18.3382 19.024ZM19.9005 38.3078V41.665H16.7758V38.3078C16.7758 37.5678 16.1759 36.9679 15.4359 36.9679H12.0788V33.8432H15.4359C16.1759 33.8432 16.7758 33.2433 16.7758 32.5034V29.1461H19.9005V32.5034C19.9005 33.2433 20.5003 33.8432 21.2403 33.8432H24.5974V36.9679H21.2403C20.5003 36.9679 19.9005 37.5678 19.9005 38.3078ZM36.4171 65.7208C36.4171 66.1451 36.2161 66.5444 35.8752 66.797L31.8963 69.747C31.6564 69.9248 31.3766 70.0106 31.0995 70.0106C30.6895 70.0106 30.2848 69.8232 30.022 69.4685C29.5812 68.8742 29.706 68.0349 30.3003 67.5942L31.0204 67.0604H18.3382C17.5982 67.0604 16.9984 66.4605 16.9984 65.7206V48.4021C16.9984 47.6622 17.5982 47.0623 18.3382 47.0623C19.0782 47.0623 19.678 47.6622 19.678 48.4021V64.3807H31.0204L30.3003 63.8469C29.706 63.4063 29.5812 62.567 30.022 61.9726C30.4626 61.3785 31.3022 61.2537 31.8963 61.6943L35.8752 64.6443C36.2161 64.897 36.4171 65.2962 36.4171 65.7206V65.7208ZM33.9001 6.83482C33.9001 6.09484 34.5 5.49498 35.24 5.49498H68.4066C69.1466 5.49498 69.7465 6.09484 69.7465 6.83482V14.0047L70.2805 13.2844C70.7211 12.6903 71.5606 12.5653 72.1547 13.0061C72.7491 13.4469 72.8739 14.2861 72.4331 14.8804L69.4829 18.8593C69.2303 19.2002 68.831 19.4012 68.4066 19.4012C67.9823 19.4012 67.583 19.2002 67.3304 18.8593L64.3804 14.8804C63.9396 14.2861 64.0644 13.4468 64.6587 13.0061C65.2534 12.5653 66.0925 12.6903 66.533 13.2844L67.0668 14.0045V8.17466H35.2398C34.4998 8.17466 33.9001 7.5748 33.9001 6.83482Z" fill="#8EA3B7" fill-opacity="0.2"/>
</g>
<defs>
<clipPath id="clip0_2_2336">
<rect width="98" height="98" fill="white"/>
</clipPath>
</defs>
</svg>
