<svg id="Layer_1" enable-background="new 0 0 30 30" height="512" viewBox="0 0 30 30" width="512" xmlns="http://www.w3.org/2000/svg"><g><g><path d="m12.9949341 16.000061h-8.9699707c-.5499268 0-1 .4500122-1 1v8.999939c0 .5500488.4500732 1 1 1h8.9699707c.5500488 0 1-.4499512 1-1v-8.999939c0-.5499878-.4499512-1-1-1zm-1.5 7.6400147c0 .4699707-.3800049.8599243-.8599854.8599243h-4.25c-.4799805 0-.8599854-.3899536-.8599854-.8599243v-4.2800293c0-.4699707.3800049-.8599854.8599854-.8599854h4.25c.4799805 0 .8599854.3900146.8599854.8599854z"/><path d="m25.9750366 16.000061h-8.9801025c-.5499268 0-1 .4500122-1 1v8.999939c0 .5500488.4500732 1 1 1h8.9801025c.5499268 0 1-.4499512 1-1v-8.999939c0-.5499878-.4500732-1-1-1zm-1.5 7.6400147c0 .4699707-.380127.8599243-.8601074.8599243h-4.2600098c-.4799805 0-.8599854-.3899536-.8599854-.8599243v-4.2800293c0-.4699707.3800049-.8599854.8599854-.8599854h4.2600098c.4799805 0 .8601074.3900146.8601074.8599854z"/><path d="m12.9949341 3.000061h-8.9699707c-.5499268 0-1 .4500122-1 1v9c0 .5499878.4500732 1 1 1h8.9699707c.5500488 0 1-.4500122 1-1v-9c0-.5499878-.4499512-1-1-1zm-1.5 7.6400147c0 .4699707-.3800049.8599854-.8599854.8599854h-4.25c-.4799805 0-.8599854-.3900146-.8599854-.8599854v-4.2800293c0-.4699707.3800049-.8599854.8599854-.8599854h4.25c.4799805 0 .8599854.3900146.8599854.8599854z"/></g><g><path d="m26.9749756 4v9c0 .5498047-.4500122 1-1 1h-8.9800415c-.5499878 0-1-.4501953-1-1v-9c0-.5498047.4500122-1 1-1h8.9800415c.5499878 0 1 .4501953 1 1z"/></g></g></svg>